<?xml version="1.0" encoding="UTF-8"?>
<svg id="Layer_1" xmlns="http://www.w3.org/2000/svg" version="1.1" viewBox="0 0 144 144">
  <!-- Generator: Adobe Illustrator 29.0.0, SVG Export Plug-In . SVG Version: 2.1.0 Build 186)  -->
  <defs>
    <style>
      .st0 {
        fill: #fff;
      }
    </style>
  </defs>
  <path class="st0" d="M101.26,30.74h-58.53c-6.6,0-12,5.4-12,12v58.53c0,6.6,5.4,12,12,12h58.53c6.6,0,12-5.4,12-12v-58.53c0-6.6-5.4-12-12-12ZM56.13,99.75h-12.19v-39.16h12.19v39.16ZM49.93,55.8c-3.85,0-6.35-2.69-6.34-6.08-.02-3.48,2.54-6.1,6.44-6.1s6.39,2.6,6.44,6.1c.02,3.39-2.49,6.08-6.54,6.08ZM101.49,99.75h-14.44v-21.44c0-4.52-1.56-7.2-5-7.2-2.8,0-4.08,1.94-4.74,3.46-.32.72-.4,1.84-.4,2.9v22.28h-14.44v-25.96c0-5.24-.16-9.76-.32-13.4h12.44l.64,5.02h.28c1.44-2.04,5.2-5.9,11.8-5.9,9.16,0,14.18,6.26,14.18,17.02v23.22Z"/>
</svg>