<?xml version="1.0" encoding="UTF-8"?>
<svg id="Layer_1" xmlns="http://www.w3.org/2000/svg" version="1.1" viewBox="0 0 144 144">
  <!-- Generator: Adobe Illustrator 29.0.0, SVG Export Plug-In . SVG Version: 2.1.0 Build 186)  -->
  <defs>
    <style>
      .st0 {
        fill: #fff;
      }
    </style>
  </defs>
  <path class="st0" d="M44.95,31.4l16.67,13.74-21.32,25.39s-10.42-20.56,4.64-39.13h0Z"/>
  <path class="st0" d="M44.95,31.4l16.67,13.74,20.84-24.82s-20.84-7.48-37.52,11.08h0Z"/>
  <path class="st0" d="M103.12,37.65l-46.71,56.08s9.28,12.22,10.52,18c0,0,1.61,8.05,4.64,7.86.23,0,3.1.61,4.99-6.62.09-.33.19-.66.31-.98.88-2.26,4.78-11.77,10.42-18.07,0,0,16.29-19.42,17.24-25.48,0,0,6.44-16.01-1.42-30.79h.01Z"/>
  <g>
    <path class="st0" d="M71.99,40.31c3.79,0,7.22,1.56,9.69,4.07.01,0,.02.02.03.03.25.25.48.5.69.77,1.98,2.36,3.18,5.41,3.18,8.73,0,2.96-.96,5.69-2.56,7.92l20.09-24.17c-7.2-13.55-20.65-17.34-20.65-17.34l-20.7,24.65c2.49-2.85,6.15-4.66,10.23-4.66Z"/>
    <path class="st0" d="M81.72,63.38v.02l.06-.08s-.04.04-.06.06Z"/>
  </g>
  <path class="st0" d="M72,67.47c-7.51,0-13.59-6.09-13.59-13.59,0-3.13,1.07-6.01,2.85-8.3l-20.95,24.95s1.42,5.78,16.11,23.21l25.31-30.34h-.01c-2.47,2.51-5.9,4.07-9.71,4.07h0Z"/>
</svg>