<?xml version="1.0" encoding="UTF-8"?>
<svg id="Layer_1" xmlns="http://www.w3.org/2000/svg" version="1.1" viewBox="0 0 144 144">
  <!-- Generator: Adobe Illustrator 29.0.0, SVG Export Plug-In . SVG Version: 2.1.0 Build 186)  -->
  <defs>
    <style>
      .st0 {
        fill: #fff;
      }
    </style>
  </defs>
  <path class="st0" d="M90.37,26.64h-36.75c-14.1,0-25.52,11.43-25.52,25.52v36.75c0,14.1,11.43,25.52,25.52,25.52h36.75c14.1,0,25.52-11.43,25.52-25.52v-36.75c0-14.1-11.43-25.52-25.52-25.52ZM107.79,89.22c0,9.28-7.52,16.81-16.81,16.81h-38.13c-9.28,0-16.81-7.52-16.81-16.81v-38.13c0-9.28,7.52-16.81,16.81-16.81h38.13c9.28,0,16.81,7.52,16.81,16.81v38.13Z"/>
  <circle class="st0" cx="95.29" cy="47.04" r="5.31"/>
  <path class="st0" d="M71.75,47.84c-12.51,0-22.66,10.14-22.66,22.66s10.14,22.66,22.66,22.66,22.66-10.14,22.66-22.66-10.14-22.66-22.66-22.66ZM72,85.13c-8.08,0-14.63-6.55-14.63-14.63s6.55-14.63,14.63-14.63,14.63,6.55,14.63,14.63-6.55,14.63-14.63,14.63Z"/>
</svg>