<?xml version="1.0" encoding="UTF-8"?>
<svg id="Layer_1" xmlns="http://www.w3.org/2000/svg" version="1.1" viewBox="0 0 144 144">
  <!-- Generator: Adobe Illustrator 29.0.0, SVG Export Plug-In . SVG Version: 2.1.0 Build 186)  -->
  <defs>
    <style>
      .st0 {
        fill: #fff;
      }
    </style>
  </defs>
  <path class="st0" d="M79.08,117.68s-.03,0-.05,0c.02,0,.03,0,.05,0Z"/>
  <path class="st0" d="M72,25.72c-25.54,0-46.25,20.71-46.25,46.25,0,23.07,16.89,42.18,38.97,45.67l-.08-32.27h-11.5v-13.31l11.62-.09v-10.67c.47-14.11,9.81-16.4,13.99-17.2,3.76-.71,13.84.63,13.84.63v11.46c-1.03-.13-2.54-.04-3.44-.08-7.02-.32-9.79,2-9.88,7.15-.04,2.29-.04,8.7-.04,8.7h13.16l-2.49,13.52-10.63-.12v32.27c22.09-3.49,38.97-22.61,38.97-45.67,0-25.54-20.71-46.25-46.25-46.25Z"/>
</svg>